General


Format                           : MPEG-4
Format profile                   : Base Media
Codec ID                         : isom
File size                        : 35.5 MiB
Duration                         : 5mn 5s
Overall bit rate                 : 974 Kbps
Encoded date                     : UTC 2012-03-11 23:10:30
Tagged date                      : UTC 2012-03-11 23:10:30

Video
ID                               : 1
Format                           : AVC
Format/Info                      : Advanced Video Codec
Format profile                   : High@L3.0
Format settings, CABAC           : Yes
Format settings, ReFrames        : 2 frames
Codec ID                         : avc1
Codec ID/Info                    : Advanced Video Coding
Duration                         : 5mn 5s
Bit rate mode                    : Variable
Bit rate                         : 902 Kbps
Maximum bit rate                 : 3 212 Kbps
Width                            : 720 pixels
Height                           : 480 pixels
Display aspect ratio             : 16:9
Original display aspect ratio    : 16:9
Frame rate mode                  : Constant
Frame rate                       : 25.000 fps
Standard                         : NTSC
Color space                      : YUV
Chroma subsampling               : 4:2:0
Bit depth                        : 8 bits
Scan type                        : Progressive
Bits/(Pixel*Frame)               : 0.104
Stream size                      : 33.3 MiB (94%)

Audio
ID                               : 2
Format                           : AAC
Format/Info                      : Advanced Audio Codec
Format profile                   : LC
Codec ID                         : 40
Duration                         : 5mn 5s
Bit rate mode                    : Variable
Bit rate                         : 54.3 Kbps
Maximum bit rate                 : 77.0 Kbps
Channel(s)                       : 2 channels
Channel positions                : Front: L R
Sampling rate                    : 44.1 KHz
Compression mode                 : Lossy
Stream size                      : 1.98 MiB (6%)


